<svg width="27" height="27" viewBox="0 0 27 27" fill="none" xmlns="http://www.w3.org/2000/svg">
<path d="M12.5804 9.90103C13.5836 8.87594 14.8899 8.2053 16.4095 8.2053C18.0053 8.2053 19.5358 8.83925 20.6642 9.96767C21.7926 11.0961 22.4265 12.6266 22.4265 14.2224V22.4275H20.2385V14.2224C20.2385 13.2069 19.8351 12.2329 19.117 11.5148C18.3989 10.7968 17.425 10.3933 16.4095 10.3933C15.3939 10.3933 14.42 10.7968 13.7019 11.5148C12.9838 12.2329 12.5804 13.2069 12.5804 14.2224V22.4275H10.3924V8.75231H12.5804V9.90103ZM4.92228 6.56428C4.48705 6.56428 4.06965 6.39138 3.7619 6.08363C3.45414 5.77588 3.28125 5.35848 3.28125 4.92325C3.28125 4.48803 3.45414 4.07062 3.7619 3.76287C4.06965 3.45512 4.48705 3.28223 4.92228 3.28223C5.3575 3.28223 5.7749 3.45512 6.08266 3.76287C6.39041 4.07062 6.5633 4.48803 6.5633 4.92325C6.5633 5.35848 6.39041 5.77588 6.08266 6.08363C5.7749 6.39138 5.3575 6.56428 4.92228 6.56428ZM3.82826 8.75231H6.01629V22.4275H3.82826V8.75231Z" fill="black"/>
</svg>
