<svg width="27" height="27" viewBox="0 0 27 27" fill="none" xmlns="http://www.w3.org/2000/svg">
<path d="M18.5975 3.28223H7.65732C6.49671 3.28223 5.38364 3.74328 4.56297 4.56395C3.7423 5.38462 3.28125 6.49769 3.28125 7.6583V18.5985C3.28125 19.7591 3.7423 20.8721 4.56297 21.6928C5.38364 22.5135 6.49671 22.9745 7.65732 22.9745H18.5975C19.7581 22.9745 20.8712 22.5135 21.6918 21.6928C22.5125 20.8721 22.9736 19.7591 22.9736 18.5985V7.6583C22.9736 6.49769 22.5125 5.38462 21.6918 4.56395C20.8712 3.74328 19.7581 3.28223 18.5975 3.28223Z" stroke="black" stroke-width="1.64103" stroke-linejoin="round"/>
<path d="M13.128 17.5046C14.2886 17.5046 15.4017 17.0435 16.2224 16.2229C17.043 15.4022 17.5041 14.2891 17.5041 13.1285C17.5041 11.9679 17.043 10.8548 16.2224 10.0342C15.4017 9.21349 14.2886 8.75244 13.128 8.75244C11.9674 8.75244 10.8543 9.21349 10.0337 10.0342C9.213 10.8548 8.75195 11.9679 8.75195 13.1285C8.75195 14.2891 9.213 15.4022 10.0337 16.2229C10.8543 17.0435 11.9674 17.5046 13.128 17.5046V17.5046Z" stroke="black" stroke-width="1.64103" stroke-linejoin="round"/>
<path d="M19.1448 8.20512C19.4349 8.20512 19.7132 8.08986 19.9184 7.88469C20.1236 7.67953 20.2388 7.40126 20.2388 7.11111C20.2388 6.82096 20.1236 6.54269 19.9184 6.33752C19.7132 6.13235 19.4349 6.01709 19.1448 6.01709C18.8546 6.01709 18.5764 6.13235 18.3712 6.33752C18.166 6.54269 18.0508 6.82096 18.0508 7.11111C18.0508 7.40126 18.166 7.67953 18.3712 7.88469C18.5764 8.08986 18.8546 8.20512 19.1448 8.20512Z" fill="black"/>
</svg>
