<svg width="27" height="27" viewBox="0 0 27 27" fill="none" xmlns="http://www.w3.org/2000/svg">
<g clip-path="url(#clip0_1042_9782)">
<path d="M15.4482 4.86133C16.4074 4.47756 17.4584 4.38505 18.4697 4.5957C19.4812 4.80647 20.4086 5.31088 21.1348 6.0459L21.167 6.0791L21.2129 6.07812C21.5837 6.07552 21.9681 6.12346 22.4248 6.05859C22.8449 5.99887 23.3329 5.84418 23.9756 5.48047C23.6408 7.1051 23.4465 7.8408 22.7158 8.84277L22.6953 8.87207V8.90723C22.6953 13.0637 21.4179 16.1441 19.501 18.3135C17.5829 20.4841 15.0172 21.7503 12.4297 22.2666C10.6606 22.6195 8.48266 22.5066 6.55957 22.1104C5.59882 21.9124 4.70485 21.6442 3.95996 21.3301C3.3219 21.061 2.79915 20.7608 2.4375 20.4463C2.90895 20.4002 3.73142 20.2979 4.64258 20.0859C5.73636 19.8314 6.97051 19.4175 7.87988 18.752L8.00684 18.6592L7.875 18.5732C7.1184 18.0745 5.26378 16.9552 4.08203 14.7871C2.91751 12.6506 2.39911 9.47746 4.28223 4.8418C6.10382 6.93924 7.95573 8.38011 9.83984 9.15332C10.4761 9.4143 10.8769 9.54412 11.1934 9.61816C11.5085 9.69189 11.7409 9.70992 12.0254 9.74902L12.3477 9.79297L12.1504 9.59668C12.1775 8.57953 12.4988 7.59186 13.0771 6.75391C13.6641 5.90358 14.489 5.24516 15.4482 4.86133ZM17.3994 6.45605C16.5394 6.45602 15.7133 6.79399 15.0996 7.39648C14.4862 7.99895 14.134 8.81806 14.1182 9.67773L14.0869 11.4014C14.0854 11.4783 14.068 11.5544 14.0352 11.624C14.0023 11.6937 13.9549 11.7555 13.8965 11.8057C13.8379 11.8559 13.7693 11.8932 13.6953 11.915C13.6215 11.9368 13.544 11.9428 13.4678 11.9326L11.7598 11.7002C9.53722 11.3972 7.40275 10.3736 5.34961 8.66309L5.20508 8.54297L5.17188 8.72754C4.84168 10.5553 4.99775 12.1114 5.63184 13.458C6.26554 14.8038 7.37123 15.9291 8.92188 16.9043L10.833 18.1055C10.9086 18.153 10.972 18.2185 11.0166 18.2959C11.0611 18.3732 11.0857 18.4606 11.0889 18.5498C11.0919 18.6391 11.0733 18.7283 11.0342 18.8086C10.995 18.8889 10.9364 18.9581 10.8643 19.0107V19.0117L9.12207 20.2832L8.87793 20.4619L9.18066 20.4814C10.2232 20.5464 11.2164 20.5001 12.0439 20.3359C14.6465 19.8163 16.8194 18.5758 18.3408 16.6523C19.8621 14.7289 20.7256 12.1303 20.7256 8.90723C20.7254 8.74795 20.6452 8.51622 20.5059 8.26758C20.3639 8.01423 20.1529 7.72945 19.875 7.46191C19.3185 6.92627 18.4878 6.45605 17.3994 6.45605Z" fill="black" stroke="white" stroke-width="0.218803"/>
</g>
<defs>
<clipPath id="clip0_1042_9782">
<rect width="26.2564" height="26.2564" fill="white"/>
</clipPath>
</defs>
</svg>
