<svg width="44" height="44" viewBox="0 0 44 44" fill="none" xmlns="http://www.w3.org/2000/svg">
<path d="M22.3486 32.5718H22.8955C23.5786 32.5717 24.2338 32.3009 24.7168 31.8179C25.1998 31.3349 25.4706 30.6796 25.4707 29.9966C25.4707 29.3136 25.1997 28.6583 24.7168 28.1753C24.2338 27.6923 23.5786 27.4205 22.8955 27.4204H22.3486V32.5718ZM20.8662 21.3335C20.1831 21.3335 19.528 21.6053 19.0449 22.0884C18.5619 22.5714 18.29 23.2265 18.29 23.9097C18.2901 24.5928 18.5619 25.2479 19.0449 25.731C19.528 26.214 20.1831 26.4858 20.8662 26.4858H21.4131V21.3335H20.8662ZM21.4131 27.4204H20.8662C19.9352 27.4204 19.0421 27.0505 18.3838 26.3921C17.7254 25.7337 17.3555 24.8407 17.3555 23.9097C17.3555 22.9786 17.7255 22.0856 18.3838 21.4272C19.0421 20.7689 19.9352 20.399 20.8662 20.3989H21.4131V19.3843H22.3486V20.3989H22.8955C23.6216 20.399 24.33 20.6243 24.9229 21.0435C25.5156 21.4627 25.964 22.0553 26.2061 22.7397C26.2264 22.7976 26.2347 22.8592 26.2314 22.9204C26.2281 22.9816 26.2129 23.0419 26.1865 23.0972C26.1601 23.1524 26.1227 23.2017 26.0771 23.2427C26.0315 23.2836 25.9787 23.316 25.9209 23.3364C25.863 23.3569 25.8015 23.3651 25.7402 23.3618C25.6789 23.3585 25.6189 23.3434 25.5635 23.3169C25.4517 23.2635 25.3656 23.168 25.3242 23.0513V23.0503C25.1466 22.5483 24.8177 22.1136 24.3828 21.8062C23.9479 21.4988 23.4281 21.3334 22.8955 21.3335H22.3486V26.4858H22.8955C23.8265 26.4859 24.7196 26.8558 25.3779 27.5142C26.0361 28.1725 26.4062 29.0656 26.4062 29.9966C26.4062 30.9276 26.0362 31.8207 25.3779 32.479C24.7196 33.1373 23.8265 33.5073 22.8955 33.5073H22.3486V34.521H21.4131V33.5073H20.8662C20.1401 33.5073 19.4317 33.282 18.8389 32.8628C18.2461 32.4436 17.7978 31.8509 17.5557 31.1665L17.5527 31.1587L17.5498 31.1519L17.5254 31.062C17.5202 31.0313 17.5185 30.9996 17.5195 30.9683C17.5216 30.9059 17.5354 30.8442 17.5615 30.7876C17.5877 30.7309 17.6258 30.6802 17.6719 30.6382C17.718 30.5962 17.7722 30.5633 17.8311 30.5425C17.8899 30.5218 17.9524 30.5133 18.0146 30.5171C18.077 30.5209 18.1384 30.5372 18.1943 30.5649C18.2502 30.5927 18.3001 30.631 18.3408 30.6782C18.3816 30.7256 18.4125 30.7808 18.4316 30.8403L18.4336 30.8481L18.4365 30.856C18.7916 31.8565 19.745 32.5717 20.8662 32.5718H21.4131V27.4204Z" fill="#FAFAFA" stroke="#FAFAFA" stroke-width="1.09402"/>
<path d="M21.9209 4.16748C26.1897 4.16748 30.0831 5.51733 32.5107 6.6958L32.6514 6.76318C33.1318 7.00092 33.5466 7.23028 33.8887 7.43408L30.4648 12.4419L30.2109 12.812L30.5254 13.1333C32.6459 15.3012 34.6481 18.0696 36.082 20.9966C37.5184 23.9286 38.3653 26.981 38.2266 29.728C38.0889 32.4524 36.9848 34.8845 34.4805 36.6538C31.952 38.4401 27.9401 39.5903 21.9209 39.5903C15.9006 39.5903 11.8761 38.4601 9.33105 36.6978C6.81096 34.9526 5.68853 32.5518 5.53418 29.8511C5.37848 27.1264 6.2099 24.0848 7.64062 21.1362C9.06869 18.1932 11.0753 15.3816 13.2178 13.1274L13.5215 12.8081L13.2734 12.4429L9.87109 7.43701C10.0433 7.33554 10.2341 7.22911 10.4414 7.11865L10.4434 7.11768C10.6517 7.00562 10.8761 6.88956 11.1172 6.77197L11.1797 6.7417C13.6265 5.55334 17.5964 4.16748 21.9209 4.16748ZM29.4922 13.8921C24.7347 15.7318 19.0047 15.7318 14.2471 13.894L14.0498 14.4038L13.6484 14.0317C11.7838 16.0415 10.041 18.4793 8.73535 21.0327L8.48047 21.5444C7.09043 24.4102 6.32262 27.2886 6.4668 29.7983C6.59759 32.0902 7.48195 34.0992 9.45215 35.6304L9.86133 35.9302C12.1878 37.5405 15.9952 38.6558 21.9199 38.6558C27.84 38.6558 31.6323 37.5203 33.9395 35.8901C36.1817 34.3052 37.1668 32.1546 37.292 29.6812C37.42 27.1466 36.636 24.255 35.2402 21.4077L35.2393 21.4058L34.9834 20.9009C33.681 18.3922 32.0326 16.0779 30.0859 14.0259L29.834 13.7593L29.4922 13.8921ZM31.4678 7.74658C28.6305 7.9509 25.2726 8.61556 22.0508 9.54834C19.8805 10.1752 17.4382 10.0862 15.1357 9.66162C14.5566 9.55426 13.9812 9.42585 13.4111 9.27783L12.0049 8.91357L12.8213 10.1147L14.7686 12.9829L14.8691 13.1304L15.0381 13.1909C19.3311 14.7193 24.3966 14.719 28.6904 13.1929L28.5078 12.6772L28.959 12.9868L31.959 8.60107L32.5986 7.66553L31.4678 7.74658ZM21.9199 5.10205C18.3298 5.10205 14.9961 6.10208 12.6699 7.08936L12.8828 7.59326L12.7275 8.11768C13.3484 8.30238 13.9912 8.46911 14.6455 8.60986L15.3037 8.7417C17.53 9.15174 19.8111 9.22216 21.79 8.64893H21.791C23.9445 8.02158 26.1352 7.52799 28.3496 7.17139L28.4199 6.10791C26.5147 5.53428 24.2776 5.10205 21.9199 5.10205Z" fill="#FAFAFA" stroke="#FAFAFA" stroke-width="1.09402"/>
</svg>
