<svg width="44" height="44" viewBox="0 0 44 44" fill="none" xmlns="http://www.w3.org/2000/svg">
<path d="M21.881 40.7772C32.3174 40.7772 40.7777 32.3169 40.7777 21.8805C40.7777 11.4442 32.3174 2.98389 21.881 2.98389C11.4447 2.98389 2.98438 11.4442 2.98438 21.8805C2.98438 32.3169 11.4447 40.7772 21.881 40.7772Z" stroke="#1A1A1A" stroke-width="2.18803" stroke-linecap="round" stroke-linejoin="round"/>
<path d="M27.449 15.9146C27.0887 15.2898 26.5652 14.7746 25.9345 14.4243C25.3038 14.074 24.5897 13.9018 23.8686 13.9261H19.8904C18.8353 13.9261 17.8234 14.3451 17.0773 15.091C16.3312 15.8368 15.9121 16.8484 15.9121 17.9032C15.9121 18.958 16.3312 19.9696 17.0773 20.7154C17.8234 21.4613 18.8353 21.8803 19.8904 21.8803H23.8686C24.9237 21.8803 25.9356 22.2993 26.6816 23.0452C27.4277 23.791 27.8468 24.8026 27.8468 25.8574C27.8468 26.9122 27.4277 27.9238 26.6816 28.6697C25.9356 29.4155 24.9237 29.8346 23.8686 29.8346H19.8904C19.1693 29.8588 18.4552 29.6866 17.8245 29.3363C17.1938 28.986 16.6703 28.4709 16.3099 27.846" stroke="#1A1A1A" stroke-width="3.00855" stroke-linecap="round" stroke-linejoin="round"/>
<path d="M21.8809 8.95117V13.2609M21.8809 30.5V34.8098" stroke="#1A1A1A" stroke-width="3.00855" stroke-linecap="round" stroke-linejoin="round"/>
</svg>
