<svg width="44" height="44" viewBox="0 0 44 44" fill="none" xmlns="http://www.w3.org/2000/svg">
<path d="M12.7631 12.7637V9.11694C12.7631 8.06099 13.0687 7.02762 13.6431 6.14156C14.2175 5.2555 15.0361 4.55463 16 4.12355C16.964 3.69248 18.0321 3.54962 19.0755 3.71222C20.1188 3.87482 21.0928 4.33594 21.8799 5.0399C22.6669 4.33594 23.6409 3.87482 24.6843 3.71222C25.7276 3.54962 26.7957 3.69248 27.7597 4.12355C28.7236 4.55463 29.5422 5.2555 30.1166 6.14156C30.691 7.02762 30.9966 8.06099 30.9967 9.11694V12.7637H33.7317C34.4571 12.7637 35.1528 13.0518 35.6657 13.5647C36.1786 14.0777 36.4668 14.7733 36.4668 15.4987V33.7414C36.4668 35.4316 35.7954 37.0525 34.6003 38.2476C33.4051 39.4427 31.7842 40.1141 30.0941 40.1141H14.5864C12.6521 40.1141 10.797 39.3457 9.42917 37.9779C8.06138 36.6101 7.29297 34.755 7.29297 32.8206V15.4987C7.29297 14.7733 7.58112 14.0777 8.09404 13.5647C8.60696 13.0518 9.30263 12.7637 10.028 12.7637H12.7631ZM24.8611 37.379C24.1172 36.312 23.7194 35.0421 23.7215 33.7414V15.4987H10.028V32.8206C10.028 33.4193 10.1459 34.012 10.375 34.5651C10.6041 35.1181 10.9399 35.6206 11.3631 36.0439C11.7864 36.4672 12.2889 36.803 12.842 37.0321C13.395 37.2611 13.9878 37.379 14.5864 37.379H24.8611ZM20.9682 12.7637V9.11694C20.9682 8.39156 20.68 7.69589 20.1671 7.18297C19.6542 6.67005 18.9585 6.3819 18.2331 6.3819C17.5078 6.3819 16.8121 6.67005 16.2992 7.18297C15.7863 7.69589 15.4981 8.39156 15.4981 9.11694V12.7637H20.9682ZM23.7032 12.7637H28.2616V9.11694C28.2617 8.55395 28.088 8.00465 27.7643 7.54404C27.4406 7.08342 26.9826 6.73393 26.4529 6.54326C25.9231 6.35259 25.3475 6.33004 24.8045 6.47869C24.2615 6.62733 23.7775 6.93993 23.4188 7.3738C23.6029 7.92081 23.7032 8.50794 23.7032 9.11694V12.7637ZM26.4565 33.7414C26.4565 34.7062 26.8397 35.6314 27.5219 36.3136C28.2041 36.9958 29.1294 37.379 30.0941 37.379C31.0589 37.379 31.9841 36.9958 32.6663 36.3136C33.3485 35.6314 33.7317 34.7062 33.7317 33.7414V15.4987H26.4565V33.7414Z" fill="white"/>
</svg>
