<svg width="44" height="44" viewBox="0 0 44 44" fill="none" xmlns="http://www.w3.org/2000/svg">
<path d="M37.3531 5.47021H30.0742L30.9859 14.587C30.9859 14.587 32.8093 16.4104 35.5443 16.4104C36.98 16.4123 38.367 15.8896 39.4445 14.9408C39.5584 14.8343 39.6432 14.7006 39.6911 14.5523C39.7389 14.4039 39.7482 14.2458 39.718 14.0929L38.4307 6.3819C38.3876 6.12716 38.2558 5.89588 38.0586 5.72902C37.8613 5.56216 37.6114 5.47048 37.3531 5.47021V5.47021Z" stroke="white" stroke-width="2.18803"/>
<path d="M30.0743 5.47021L30.986 14.587C30.986 14.587 29.1626 16.4104 26.4275 16.4104C23.6925 16.4104 21.8691 14.587 21.8691 14.587V5.47021H30.0743Z" stroke="#FAFAFA" stroke-width="2.18803"/>
<path d="M21.8688 5.47021V14.587C21.8688 14.587 20.0454 16.4104 17.3104 16.4104C14.5753 16.4104 12.752 14.587 12.752 14.587L13.6636 5.47021H21.8688Z" stroke="#FAFAFA" stroke-width="2.18803"/>
<path d="M13.6631 5.47021H6.38605C6.12712 5.47012 5.87655 5.56186 5.6789 5.72913C5.48125 5.89639 5.34934 6.12834 5.30662 6.38372L4.02114 14.0947C3.9911 14.2476 4.00044 14.4057 4.04829 14.554C4.09613 14.7023 4.18091 14.836 4.29465 14.9426C4.89271 15.4714 6.22924 16.4122 8.193 16.4122C10.928 16.4122 12.7514 14.5888 12.7514 14.5888L13.6631 5.47204V5.47021Z" stroke="#FAFAFA" stroke-width="2.18803"/>
<path d="M5.4707 16.4102V34.6438C5.4707 35.6109 5.85491 36.5385 6.5388 37.2224C7.2227 37.9063 8.15026 38.2905 9.11743 38.2905H34.6445C35.6117 38.2905 36.5392 37.9063 37.2231 37.2224C37.907 36.5385 38.2912 35.6109 38.2912 34.6438V16.4102" stroke="#FAFAFA" stroke-width="2.18803"/>
<path d="M27.0456 38.2905V27.3503C27.0456 26.3832 26.6614 25.4556 25.9775 24.7717C25.2936 24.0878 24.3661 23.7036 23.3989 23.7036H19.7522C18.785 23.7036 17.8575 24.0878 17.1736 24.7717C16.4897 25.4556 16.1055 26.3832 16.1055 27.3503V38.2905" stroke="#FAFAFA" stroke-width="2.18803" stroke-miterlimit="16"/>
</svg>
