<svg width="62" height="60" viewBox="0 0 62 60" fill="none" xmlns="http://www.w3.org/2000/svg">
<path fill-rule="evenodd" clip-rule="evenodd" d="M27.5309 25.1403C27.3837 24.3141 27.9341 23.5249 28.7603 23.3777L40.9019 21.2139C41.3343 21.1368 41.7788 21.2506 42.121 21.5258C42.4632 21.8011 42.6695 22.2109 42.6869 22.6497L43.175 34.973C43.2082 35.8115 42.5554 36.5183 41.7168 36.5515C40.8782 36.5847 40.1715 35.9318 40.1383 35.0933L39.8107 26.8223L28.3833 41.0282C27.8573 41.6821 26.9008 41.7858 26.2468 41.2598C25.5929 40.7337 25.4892 39.7772 26.0153 39.1233L37.4426 24.9174L29.2935 26.3697C28.4673 26.5169 27.6782 25.9665 27.5309 25.1403Z" fill="#363853"/>
</svg>
