<svg width="48" height="48" viewBox="0 0 48 48" fill="none" xmlns="http://www.w3.org/2000/svg">
<path d="M23.9968 34.5484L15.6968 39.5484C15.3301 39.7818 14.9468 39.8818 14.5468 39.8484C14.1468 39.8151 13.7968 39.6818 13.4968 39.4484C13.1968 39.2151 12.9634 38.9238 12.7968 38.5744C12.6301 38.2251 12.5968 37.8331 12.6968 37.3984L14.8968 27.9484L7.54675 21.5984C7.21342 21.2984 7.00542 20.9564 6.92275 20.5724C6.84008 20.1884 6.86475 19.8138 6.99675 19.4484C7.12875 19.0831 7.32875 18.7831 7.59675 18.5484C7.86475 18.3138 8.23142 18.1638 8.69675 18.0984L18.3968 17.2484L22.1468 8.34844C22.3134 7.94844 22.5721 7.64844 22.9228 7.44844C23.2734 7.24844 23.6314 7.14844 23.9968 7.14844C24.3621 7.14844 24.7201 7.24844 25.0708 7.44844C25.4214 7.64844 25.6801 7.94844 25.8468 8.34844L29.5968 17.2484L39.2967 18.0984C39.7634 18.1651 40.1301 18.3151 40.3968 18.5484C40.6634 18.7818 40.8634 19.0818 40.9967 19.4484C41.1301 19.8151 41.1554 20.1904 41.0728 20.5744C40.9901 20.9584 40.7814 21.2998 40.4468 21.5984L33.0968 27.9484L35.2968 37.3984C35.3968 37.8318 35.3634 38.2238 35.1968 38.5744C35.0301 38.9251 34.7968 39.2164 34.4968 39.4484C34.1968 39.6804 33.8468 39.8138 33.4468 39.8484C33.0468 39.8831 32.6634 39.7831 32.2968 39.5484L23.9968 34.5484Z" fill="black"/>
</svg>
