<svg width="24" height="24" viewBox="0 0 24 24" fill="none" xmlns="http://www.w3.org/2000/svg">
<path d="M20.2058 14.97C19.6688 17.657 19.3998 19 18.5128 19.865C18.3481 20.025 18.1714 20.1697 17.9828 20.299C16.9598 21 15.5898 21 12.8498 21H11.1498C8.40977 21 7.04077 21 6.01877 20.3C5.82998 20.1704 5.65266 20.0249 5.48877 19.865C4.59977 19 4.32977 17.657 3.79277 14.97C3.02177 11.114 2.63577 9.186 3.52377 7.82C3.68465 7.57236 3.87246 7.3433 4.08377 7.137C5.24977 6 7.21477 6 11.1478 6H12.8508C16.7828 6 18.7488 6 19.9148 7.138C20.1257 7.34435 20.3132 7.57341 20.4738 7.821C20.9848 8.607 21.0738 9.581 20.9098 11" stroke="black" stroke-width="1.5" stroke-linecap="round"/>
<path d="M15 11C15.5523 11 16 10.5523 16 10C16 9.44772 15.5523 9 15 9C14.4477 9 14 9.44772 14 10C14 10.5523 14.4477 11 15 11Z" fill="black"/>
<path d="M9 11C9.55228 11 10 10.5523 10 10C10 9.44772 9.55228 9 9 9C8.44772 9 8 9.44772 8 10C8 10.5523 8.44772 11 9 11Z" fill="black"/>
<path d="M9 6V5C9 4.20435 9.31607 3.44129 9.87868 2.87868C10.4413 2.31607 11.2044 2 12 2C12.7956 2 13.5587 2.31607 14.1213 2.87868C14.6839 3.44129 15 4.20435 15 5V6" stroke="black" stroke-width="1.5" stroke-linecap="round"/>
</svg>
