<svg width="45" height="45" viewBox="0 0 45 45" fill="none" xmlns="http://www.w3.org/2000/svg">
<circle cx="22.0909" cy="22.0909" r="22.0909" fill="#F8F8F8"/>
<path d="M11.5767 22.9984C11.0126 22.438 10.5656 21.771 10.2619 21.0361C9.95817 20.3013 9.80372 19.5134 9.80756 18.7183C9.80756 17.1101 10.4464 15.5678 11.5835 14.4307C12.7206 13.2936 14.2629 12.6548 15.8711 12.6548C18.1253 12.6548 20.0941 13.8817 21.1356 15.7079H22.7335C23.263 14.7792 24.0291 14.0074 24.9539 13.4711C25.8786 12.9348 26.929 12.6531 27.998 12.6548C29.6062 12.6548 31.1485 13.2936 32.2856 14.4307C33.4227 15.5678 34.0615 17.1101 34.0615 18.7183C34.0615 20.3875 33.3482 21.9283 32.2924 22.9984L21.9346 33.342L11.5767 22.9984ZM33.2911 24.0113C34.6465 22.6417 35.4882 20.787 35.4882 18.7183C35.4882 16.7317 34.6991 14.8266 33.2944 13.4219C31.8897 12.0172 29.9846 11.2281 27.998 11.2281C25.5013 11.2281 23.2899 12.4408 21.9346 14.324C21.2427 13.3631 20.3318 12.581 19.2773 12.0426C18.2228 11.5042 17.0551 11.2249 15.8711 11.2281C13.8845 11.2281 11.9794 12.0172 10.5747 13.4219C9.17 14.8266 8.38086 16.7317 8.38086 18.7183C8.38086 20.787 9.22262 22.6417 10.578 24.0113L21.9346 35.3679L33.2911 24.0113Z" fill="#A1A1A1"/>
</svg>
