<svg width="31" height="31" viewBox="0 0 31 31" fill="none" xmlns="http://www.w3.org/2000/svg">
<path d="M5.47634 15.8228C4.96563 15.3154 4.56099 14.7115 4.28601 14.0463C4.01102 13.381 3.8712 12.6676 3.87467 11.9478C3.87467 10.4918 4.45304 9.09555 5.48254 8.06606C6.51203 7.03656 7.90833 6.45819 9.36426 6.45819C11.4051 6.45819 13.1876 7.56903 14.1305 9.22236H15.5772C16.0565 8.38156 16.7501 7.68281 17.5874 7.19726C18.4246 6.7117 19.3756 6.45669 20.3434 6.45819C21.7994 6.45819 23.1956 7.03656 24.2251 8.06606C25.2546 9.09555 25.833 10.4918 25.833 11.9478C25.833 13.459 25.1872 14.854 24.2313 15.8228L14.8538 25.1874L5.47634 15.8228ZM25.1355 16.7399C26.3626 15.4999 27.1247 13.8207 27.1247 11.9478C27.1247 10.1493 26.4102 8.42444 25.1385 7.15271C23.8668 5.88098 22.1419 5.16653 20.3434 5.16653C18.083 5.16653 16.0809 6.26444 14.8538 7.96944C14.2275 7.0995 13.4028 6.39144 12.4481 5.90398C11.4934 5.41651 10.4362 5.16371 9.36426 5.16653C7.56576 5.16653 5.84092 5.88098 4.56919 7.15271C3.29746 8.42444 2.58301 10.1493 2.58301 11.9478C2.58301 13.8207 3.34509 15.4999 4.57217 16.7399L14.8538 27.0215L25.1355 16.7399Z" fill="#1A1A1A"/>
</svg>
