<svg width="171" height="50" viewBox="0 0 171 50" fill="none" xmlns="http://www.w3.org/2000/svg">
<g clip-path="url(#clip0_1040_6451)">
<rect width="46.3636" height="50" rx="9.09091" fill="#A1C249"/>
<path d="M20.7959 36.6109C19.3413 36.6109 18.2359 36.2182 17.4795 35.4327C16.7231 34.6182 16.3449 33.4982 16.3449 32.0727C16.3449 30.3564 16.5922 28.64 17.0868 26.9236C17.6104 25.2073 18.2359 23.5491 18.9631 21.9491C19.7195 20.32 20.4613 18.8073 21.1886 17.4109C21.9449 15.9855 22.5559 14.7345 23.0213 13.6582C23.2831 13.0473 23.414 12.5236 23.414 12.0873C23.414 11.4473 23.1522 11.1273 22.6286 11.1273C22.2795 11.1273 21.7704 11.3745 21.1013 11.8691C20.4613 12.3345 19.8359 13.0036 19.2249 13.8764C17.9159 15.7091 16.9122 17.4255 16.214 19.0255C15.5159 20.6255 15.1668 21.9636 15.1668 23.04C15.1668 23.5345 15.254 23.9564 15.4286 24.3055C15.4868 24.3927 15.5159 24.5236 15.5159 24.6982C15.5159 24.9309 15.3849 25.0473 15.1231 25.0473C14.8613 25.0473 14.5413 24.9018 14.1631 24.6109C13.6977 24.2327 13.3486 23.7673 13.1159 23.2145C12.9122 22.6618 12.8104 22.0364 12.8104 21.3382C12.8104 20.3782 12.9849 19.36 13.334 18.2836C13.7122 17.2073 14.2068 16.16 14.8177 15.1418C15.4286 14.0945 16.1268 13.1782 16.9122 12.3927C17.8431 11.4618 18.8613 10.72 19.9668 10.1673C21.1013 9.61455 22.0322 9.33818 22.7595 9.33818C24.534 9.33818 25.9159 9.70182 26.9049 10.4291C27.894 11.1564 28.3886 12.0436 28.3886 13.0909C28.3886 13.44 28.3159 13.8327 28.1704 14.2691C27.734 15.5491 27.1377 17.0182 26.3813 18.6764C25.654 20.3055 24.8977 21.9927 24.1122 23.7382C23.3559 25.4836 22.7013 27.1709 22.1486 28.8C21.6249 30.4291 21.3631 31.8691 21.3631 33.12C21.3631 33.5855 21.4213 33.9636 21.5377 34.2545C21.6831 34.5164 21.9013 34.6473 22.1922 34.6473C22.8031 34.6473 23.4722 34.2545 24.1995 33.4691C24.9268 32.6836 25.6686 31.6509 26.4249 30.3709C27.1813 29.0909 27.9086 27.6945 28.6068 26.1818C29.334 24.6691 29.974 23.1709 30.5268 21.6873C31.0795 20.2036 31.5159 18.88 31.8359 17.7164C32.1849 16.5236 32.3595 15.6218 32.3595 15.0109C32.3595 14.5455 32.3013 14.0655 32.1849 13.5709C32.0977 13.0473 31.9668 12.5964 31.7922 12.2182C31.6177 11.84 31.4286 11.6509 31.2249 11.6509C30.9631 11.6509 30.8322 11.5927 30.8322 11.4764C30.8322 11.2727 31.0068 11.1709 31.3559 11.1709C31.7631 11.1709 32.3449 11.2873 33.1013 11.52C33.8868 11.7236 34.6431 12.0436 35.3704 12.48C36.1268 12.9455 36.6504 13.4691 36.9413 14.0509C37.2322 14.6327 37.3777 15.2582 37.3777 15.9273C37.3777 16.6255 37.2613 17.3382 37.0286 18.0655C36.7959 18.7927 36.5631 19.4909 36.3304 20.16C35.9813 21.1782 35.414 22.4 34.6286 23.8255C33.8722 25.2218 32.9704 26.6618 31.9231 28.1455C30.8759 29.6291 29.7268 31.0109 28.4759 32.2909C27.254 33.5709 25.9886 34.6182 24.6795 35.4327C23.3704 36.2182 22.0759 36.6109 20.7959 36.6109Z" fill="#F7F7F7"/>
</g>
<path d="M58.4525 37L52.0445 11.8H56.9405L62.2685 33.94H62.7725L68.1005 11.8H72.9965L66.5885 37H58.4525ZM83.2165 37.504C81.4405 37.504 79.8685 37.132 78.5005 36.388C77.1565 35.62 76.1005 34.552 75.3325 33.184C74.5885 31.792 74.2165 30.16 74.2165 28.288V27.856C74.2165 25.984 74.5885 24.364 75.3325 22.996C76.0765 21.604 77.1205 20.536 78.4645 19.792C79.8085 19.024 81.3685 18.64 83.1445 18.64C84.8965 18.64 86.4205 19.036 87.7165 19.828C89.0125 20.596 90.0205 21.676 90.7405 23.068C91.4605 24.436 91.8205 26.032 91.8205 27.856V29.404H78.8245C78.8725 30.628 79.3285 31.624 80.1925 32.392C81.0565 33.16 82.1125 33.544 83.3605 33.544C84.6325 33.544 85.5685 33.268 86.1685 32.716C86.7685 32.164 87.2245 31.552 87.5365 30.88L91.2445 32.824C90.9085 33.448 90.4165 34.132 89.7685 34.876C89.1445 35.596 88.3045 36.22 87.2485 36.748C86.1925 37.252 84.8485 37.504 83.2165 37.504ZM78.8605 26.02H87.2125C87.1165 24.988 86.6965 24.16 85.9525 23.536C85.2325 22.912 84.2845 22.6 83.1085 22.6C81.8845 22.6 80.9125 22.912 80.1925 23.536C79.4725 24.16 79.0285 24.988 78.8605 26.02ZM95.8579 37V11.8H100.394V37H95.8579ZM113.916 37.504C112.14 37.504 110.544 37.144 109.128 36.424C107.712 35.704 106.596 34.66 105.78 33.292C104.964 31.924 104.556 30.28 104.556 28.36V27.784C104.556 25.864 104.964 24.22 105.78 22.852C106.596 21.484 107.712 20.44 109.128 19.72C110.544 19 112.14 18.64 113.916 18.64C115.692 18.64 117.288 19 118.704 19.72C120.12 20.44 121.236 21.484 122.052 22.852C122.868 24.22 123.276 25.864 123.276 27.784V28.36C123.276 30.28 122.868 31.924 122.052 33.292C121.236 34.66 120.12 35.704 118.704 36.424C117.288 37.144 115.692 37.504 113.916 37.504ZM113.916 33.472C115.308 33.472 116.46 33.028 117.372 32.14C118.284 31.228 118.74 29.932 118.74 28.252V27.892C118.74 26.212 118.284 24.928 117.372 24.04C116.484 23.128 115.332 22.672 113.916 22.672C112.524 22.672 111.372 23.128 110.46 24.04C109.548 24.928 109.092 26.212 109.092 27.892V28.252C109.092 29.932 109.548 31.228 110.46 32.14C111.372 33.028 112.524 33.472 113.916 33.472ZM127.463 37V19.144H131.927V21.16H132.575C132.839 20.44 133.271 19.912 133.871 19.576C134.495 19.24 135.215 19.072 136.031 19.072H138.191V23.104H135.959C134.807 23.104 133.859 23.416 133.115 24.04C132.371 24.64 131.999 25.576 131.999 26.848V37H127.463ZM146.859 37.504C145.587 37.504 144.447 37.288 143.439 36.856C142.431 36.4 141.627 35.752 141.027 34.912C140.451 34.048 140.163 33.004 140.163 31.78C140.163 30.556 140.451 29.536 141.027 28.72C141.627 27.88 142.443 27.256 143.475 26.848C144.531 26.416 145.731 26.2 147.075 26.2H151.971V25.192C151.971 24.352 151.707 23.668 151.179 23.14C150.651 22.588 149.811 22.312 148.659 22.312C147.531 22.312 146.691 22.576 146.139 23.104C145.587 23.608 145.227 24.268 145.059 25.084L140.883 23.68C141.171 22.768 141.627 21.94 142.251 21.196C142.899 20.428 143.751 19.816 144.807 19.36C145.887 18.88 147.195 18.64 148.731 18.64C151.083 18.64 152.943 19.228 154.311 20.404C155.679 21.58 156.363 23.284 156.363 25.516V32.176C156.363 32.896 156.699 33.256 157.371 33.256H158.811V37H155.787C154.899 37 154.167 36.784 153.591 36.352C153.015 35.92 152.727 35.344 152.727 34.624V34.588H152.043C151.947 34.876 151.731 35.26 151.395 35.74C151.059 36.196 150.531 36.604 149.811 36.964C149.091 37.324 148.107 37.504 146.859 37.504ZM147.651 33.832C148.923 33.832 149.955 33.484 150.747 32.788C151.563 32.068 151.971 31.12 151.971 29.944V29.584H147.399C146.559 29.584 145.899 29.764 145.419 30.124C144.939 30.484 144.699 30.988 144.699 31.636C144.699 32.284 144.951 32.812 145.455 33.22C145.959 33.628 146.691 33.832 147.651 33.832ZM164.971 37.504C164.011 37.504 163.195 37.192 162.523 36.568C161.875 35.92 161.551 35.092 161.551 34.084C161.551 33.076 161.875 32.26 162.523 31.636C163.195 30.988 164.011 30.664 164.971 30.664C165.955 30.664 166.771 30.988 167.419 31.636C168.067 32.26 168.391 33.076 168.391 34.084C168.391 35.092 168.067 35.92 167.419 36.568C166.771 37.192 165.955 37.504 164.971 37.504Z" fill="black"/>
<path d="M63.8939 46V41.632H62.3189V41.1H66.0569V41.632H64.4819V46H63.8939ZM66.8261 46V41.1H67.3791V43.123H67.4771C67.5238 43.0203 67.5938 42.9247 67.6871 42.836C67.7851 42.7427 67.9088 42.6657 68.0581 42.605C68.2121 42.5443 68.4058 42.514 68.6391 42.514C68.8958 42.514 69.1245 42.57 69.3251 42.682C69.5305 42.7893 69.6938 42.948 69.8151 43.158C69.9365 43.3633 69.9971 43.62 69.9971 43.928V46H69.4441V43.97C69.4441 43.6293 69.3578 43.382 69.1851 43.228C69.0171 43.074 68.7885 42.997 68.4991 42.997C68.1678 42.997 67.8971 43.1043 67.6871 43.319C67.4818 43.5337 67.3791 43.8533 67.3791 44.278V46H66.8261ZM71.1191 46V42.577H71.6721V46H71.1191ZM71.3991 42.045C71.2778 42.045 71.1751 42.0053 71.0911 41.926C71.0118 41.8467 70.9721 41.7463 70.9721 41.625C70.9721 41.499 71.0118 41.3963 71.0911 41.317C71.1751 41.2377 71.2778 41.198 71.3991 41.198C71.5204 41.198 71.6208 41.2377 71.7001 41.317C71.7794 41.3963 71.8191 41.499 71.8191 41.625C71.8191 41.7463 71.7794 41.8467 71.7001 41.926C71.6208 42.0053 71.5204 42.045 71.3991 42.045ZM72.8349 46V42.577H73.3739V43.158H73.4719C73.5466 42.9947 73.6726 42.8477 73.8499 42.717C74.0319 42.5817 74.2979 42.514 74.6479 42.514C74.9046 42.514 75.1332 42.5677 75.3339 42.675C75.5392 42.7823 75.7026 42.941 75.8239 43.151C75.9452 43.361 76.0059 43.62 76.0059 43.928V46H75.4529V43.97C75.4529 43.6293 75.3666 43.382 75.1939 43.228C75.0259 43.074 74.7972 42.997 74.5079 42.997C74.1766 42.997 73.9059 43.1043 73.6959 43.319C73.4906 43.5337 73.3879 43.8533 73.3879 44.278V46H72.8349ZM77.1279 46V41.1H77.6809V43.984H77.7789L79.3469 42.577H80.1169L78.2199 44.243L80.1729 46H79.4099L77.7789 44.509H77.6809V46H77.1279ZM83.3643 46V43.06H82.3143V42.577H83.3643V41.702C83.3643 41.5153 83.4157 41.3683 83.5183 41.261C83.6257 41.1537 83.7773 41.1 83.9733 41.1H84.8343V41.576H84.1273C83.9873 41.576 83.9173 41.646 83.9173 41.786V42.577H84.9953V43.06H83.9173V46H83.3643ZM87.2001 46.098C86.8548 46.098 86.5491 46.0257 86.2831 45.881C86.0218 45.7363 85.8164 45.5333 85.6671 45.272C85.5224 45.006 85.4501 44.6933 85.4501 44.334V44.243C85.4501 43.8883 85.5224 43.578 85.6671 43.312C85.8164 43.046 86.0218 42.8407 86.2831 42.696C86.5491 42.5513 86.8548 42.479 87.2001 42.479C87.5454 42.479 87.8488 42.5513 88.1101 42.696C88.3761 42.8407 88.5814 43.046 88.7261 43.312C88.8754 43.578 88.9501 43.8883 88.9501 44.243V44.334C88.9501 44.6933 88.8754 45.006 88.7261 45.272C88.5814 45.5333 88.3761 45.7363 88.1101 45.881C87.8488 46.0257 87.5454 46.098 87.2001 46.098ZM87.2001 45.601C87.5641 45.601 87.8534 45.4867 88.0681 45.258C88.2874 45.0247 88.3971 44.712 88.3971 44.32V44.257C88.3971 43.865 88.2874 43.5547 88.0681 43.326C87.8534 43.0927 87.5641 42.976 87.2001 42.976C86.8408 42.976 86.5514 43.0927 86.3321 43.326C86.1128 43.5547 86.0031 43.865 86.0031 44.257V44.32C86.0031 44.712 86.1128 45.0247 86.3321 45.258C86.5514 45.4867 86.8408 45.601 87.2001 45.601ZM90.3529 46L89.6669 42.577H90.2269L90.7939 45.629H90.8919L91.6409 42.577H92.5579L93.3069 45.629H93.4049L93.9719 42.577H94.5319L93.8459 46H92.9009L92.1449 42.948H92.0539L91.2979 46H90.3529ZM96.4777 46.098C96.2397 46.098 96.0227 46.056 95.8267 45.972C95.6307 45.888 95.4767 45.7667 95.3647 45.608C95.2527 45.4493 95.1967 45.2557 95.1967 45.027C95.1967 44.7937 95.2527 44.6023 95.3647 44.453C95.4767 44.299 95.6307 44.1847 95.8267 44.11C96.0227 44.0307 96.242 43.991 96.4847 43.991H97.6397V43.739C97.6397 43.4963 97.5673 43.305 97.4227 43.165C97.2827 43.025 97.0727 42.955 96.7927 42.955C96.5173 42.955 96.3027 43.0227 96.1487 43.158C95.9947 43.2887 95.8897 43.466 95.8337 43.69L95.3157 43.522C95.3717 43.3307 95.4603 43.158 95.5817 43.004C95.703 42.8453 95.864 42.7193 96.0647 42.626C96.27 42.528 96.515 42.479 96.7997 42.479C97.2383 42.479 97.579 42.5933 97.8217 42.822C98.0643 43.046 98.1857 43.3633 98.1857 43.774V45.321C98.1857 45.461 98.251 45.531 98.3817 45.531H98.6967V46H98.2137C98.0597 46 97.936 45.958 97.8427 45.874C97.7493 45.7853 97.7027 45.6687 97.7027 45.524V45.489H97.6187C97.5673 45.5777 97.4973 45.671 97.4087 45.769C97.3247 45.8623 97.208 45.9393 97.0587 46C96.9093 46.0653 96.7157 46.098 96.4777 46.098ZM96.5407 45.622C96.8673 45.622 97.131 45.5263 97.3317 45.335C97.537 45.139 97.6397 44.866 97.6397 44.516V44.439H96.5057C96.2863 44.439 96.1043 44.488 95.9597 44.586C95.8197 44.6793 95.7497 44.8217 95.7497 45.013C95.7497 45.2043 95.822 45.3537 95.9667 45.461C96.116 45.5683 96.3073 45.622 96.5407 45.622ZM99.454 46V42.577H99.993V42.997H100.091C100.152 42.8477 100.245 42.738 100.371 42.668C100.497 42.598 100.663 42.563 100.868 42.563H101.274V43.067H100.833C100.586 43.067 100.385 43.137 100.231 43.277C100.082 43.4123 100.007 43.6247 100.007 43.914V46H99.454ZM103.419 46.098C103.125 46.098 102.854 46.028 102.607 45.888C102.359 45.748 102.163 45.545 102.019 45.279C101.874 45.013 101.802 44.698 101.802 44.334V44.243C101.802 43.879 101.874 43.5663 102.019 43.305C102.163 43.039 102.357 42.836 102.6 42.696C102.847 42.5513 103.12 42.479 103.419 42.479C103.657 42.479 103.857 42.5117 104.021 42.577C104.189 42.6377 104.324 42.717 104.427 42.815C104.529 42.9083 104.609 43.0087 104.665 43.116H104.763V41.1H105.316V46H104.777V45.433H104.679C104.585 45.6057 104.441 45.7597 104.245 45.895C104.049 46.0303 103.773 46.098 103.419 46.098ZM103.566 45.608C103.92 45.608 104.207 45.496 104.427 45.272C104.651 45.0433 104.763 44.726 104.763 44.32V44.257C104.763 43.851 104.651 43.536 104.427 43.312C104.207 43.0833 103.92 42.969 103.566 42.969C103.216 42.969 102.926 43.0833 102.698 43.312C102.474 43.536 102.362 43.851 102.362 44.257V44.32C102.362 44.726 102.474 45.0433 102.698 45.272C102.926 45.496 103.216 45.608 103.566 45.608ZM106.419 46.875V46.525H106.622C106.79 46.525 106.874 46.441 106.874 46.273V46.049H106.776C106.64 46.049 106.526 46.007 106.433 45.923C106.344 45.839 106.3 45.734 106.3 45.608C106.3 45.4727 106.344 45.363 106.433 45.279C106.526 45.195 106.64 45.153 106.776 45.153C106.911 45.153 107.023 45.1973 107.112 45.286C107.2 45.3747 107.245 45.4867 107.245 45.622V46.273C107.245 46.6743 107.044 46.875 106.643 46.875H106.419ZM111.4 46.098C111.045 46.098 110.728 46.035 110.448 45.909C110.168 45.783 109.946 45.594 109.783 45.342C109.624 45.0853 109.545 44.7657 109.545 44.383V44.236H110.126V44.383C110.126 44.789 110.245 45.0923 110.483 45.293C110.721 45.489 111.027 45.587 111.4 45.587C111.783 45.587 112.074 45.5007 112.275 45.328C112.476 45.1553 112.576 44.9383 112.576 44.677C112.576 44.495 112.529 44.3503 112.436 44.243C112.347 44.1357 112.221 44.0493 112.058 43.984C111.895 43.914 111.703 43.8533 111.484 43.802L111.12 43.711C110.835 43.6363 110.583 43.5453 110.364 43.438C110.145 43.3307 109.972 43.1907 109.846 43.018C109.725 42.8407 109.664 42.6143 109.664 42.339C109.664 42.0637 109.732 41.8257 109.867 41.625C110.007 41.4243 110.201 41.2703 110.448 41.163C110.7 41.0557 110.989 41.002 111.316 41.002C111.647 41.002 111.944 41.0603 112.205 41.177C112.471 41.289 112.679 41.457 112.828 41.681C112.982 41.9003 113.059 42.178 113.059 42.514V42.808H112.478V42.514C112.478 42.276 112.427 42.0847 112.324 41.94C112.226 41.7953 112.088 41.688 111.911 41.618C111.738 41.548 111.54 41.513 111.316 41.513C110.994 41.513 110.735 41.5853 110.539 41.73C110.343 41.87 110.245 42.0707 110.245 42.332C110.245 42.5047 110.287 42.6447 110.371 42.752C110.455 42.8593 110.574 42.948 110.728 43.018C110.882 43.0833 111.066 43.1417 111.281 43.193L111.645 43.284C111.93 43.3447 112.184 43.4287 112.408 43.536C112.637 43.6387 112.819 43.781 112.954 43.963C113.089 44.1403 113.157 44.3737 113.157 44.663C113.157 44.9523 113.085 45.2043 112.94 45.419C112.795 45.6337 112.59 45.8017 112.324 45.923C112.063 46.0397 111.755 46.098 111.4 46.098ZM114.083 47.4V42.577H114.622V43.144H114.72C114.809 42.9713 114.951 42.8173 115.147 42.682C115.348 42.5467 115.625 42.479 115.98 42.479C116.274 42.479 116.542 42.5513 116.785 42.696C117.032 42.836 117.228 43.0367 117.373 43.298C117.522 43.5593 117.597 43.8743 117.597 44.243V44.334C117.597 44.698 117.525 45.013 117.38 45.279C117.235 45.545 117.039 45.748 116.792 45.888C116.549 46.028 116.279 46.098 115.98 46.098C115.742 46.098 115.539 46.0653 115.371 46C115.208 45.9393 115.075 45.86 114.972 45.762C114.869 45.664 114.79 45.5637 114.734 45.461H114.636V47.4H114.083ZM115.833 45.608C116.188 45.608 116.475 45.496 116.694 45.272C116.918 45.0433 117.03 44.726 117.03 44.32V44.257C117.03 43.851 116.918 43.536 116.694 43.312C116.475 43.0833 116.188 42.969 115.833 42.969C115.483 42.969 115.194 43.0833 114.965 43.312C114.741 43.536 114.629 43.851 114.629 44.257V44.32C114.629 44.726 114.741 45.0433 114.965 45.272C115.194 45.496 115.483 45.608 115.833 45.608ZM120.156 46.098C119.811 46.098 119.507 46.0257 119.246 45.881C118.985 45.7317 118.782 45.524 118.637 45.258C118.492 44.992 118.42 44.684 118.42 44.334V44.25C118.42 43.8953 118.492 43.585 118.637 43.319C118.782 43.053 118.982 42.8477 119.239 42.703C119.496 42.5537 119.79 42.479 120.121 42.479C120.443 42.479 120.728 42.549 120.975 42.689C121.222 42.8243 121.416 43.0203 121.556 43.277C121.696 43.5337 121.766 43.8347 121.766 44.18V44.432H118.973C118.987 44.8007 119.106 45.09 119.33 45.3C119.554 45.5053 119.834 45.608 120.17 45.608C120.464 45.608 120.69 45.5403 120.849 45.405C121.008 45.2697 121.129 45.1087 121.213 44.922L121.689 45.153C121.619 45.2977 121.521 45.4423 121.395 45.587C121.274 45.7317 121.113 45.853 120.912 45.951C120.716 46.049 120.464 46.098 120.156 46.098ZM118.98 43.977H121.206C121.187 43.6597 121.078 43.4123 120.877 43.235C120.681 43.0577 120.429 42.969 120.121 42.969C119.808 42.969 119.552 43.0577 119.351 43.235C119.15 43.4123 119.027 43.6597 118.98 43.977ZM122.73 46V42.577H123.269V43.158H123.367C123.442 42.9947 123.568 42.8477 123.745 42.717C123.927 42.5817 124.193 42.514 124.543 42.514C124.8 42.514 125.029 42.5677 125.229 42.675C125.435 42.7823 125.598 42.941 125.719 43.151C125.841 43.361 125.901 43.62 125.901 43.928V46H125.348V43.97C125.348 43.6293 125.262 43.382 125.089 43.228C124.921 43.074 124.693 42.997 124.403 42.997C124.072 42.997 123.801 43.1043 123.591 43.319C123.386 43.5337 123.283 43.8533 123.283 44.278V46H122.73ZM128.472 46.098C128.178 46.098 127.908 46.028 127.66 45.888C127.413 45.748 127.217 45.545 127.072 45.279C126.928 45.013 126.855 44.698 126.855 44.334V44.243C126.855 43.879 126.928 43.5663 127.072 43.305C127.217 43.039 127.411 42.836 127.653 42.696C127.901 42.5513 128.174 42.479 128.472 42.479C128.71 42.479 128.911 42.5117 129.074 42.577C129.242 42.6377 129.378 42.717 129.48 42.815C129.583 42.9083 129.662 43.0087 129.718 43.116H129.816V41.1H130.369V46H129.83V45.433H129.732C129.639 45.6057 129.494 45.7597 129.298 45.895C129.102 46.0303 128.827 46.098 128.472 46.098ZM128.619 45.608C128.974 45.608 129.261 45.496 129.48 45.272C129.704 45.0433 129.816 44.726 129.816 44.32V44.257C129.816 43.851 129.704 43.536 129.48 43.312C129.261 43.0833 128.974 42.969 128.619 42.969C128.269 42.969 127.98 43.0833 127.751 43.312C127.527 43.536 127.415 43.851 127.415 44.257V44.32C127.415 44.726 127.527 45.0433 127.751 45.272C127.98 45.496 128.269 45.608 128.619 45.608ZM134.929 46.098C134.575 46.098 134.257 46.035 133.977 45.909C133.697 45.783 133.476 45.594 133.312 45.342C133.154 45.0853 133.074 44.7657 133.074 44.383V44.236H133.655V44.383C133.655 44.789 133.774 45.0923 134.012 45.293C134.25 45.489 134.556 45.587 134.929 45.587C135.312 45.587 135.604 45.5007 135.804 45.328C136.005 45.1553 136.105 44.9383 136.105 44.677C136.105 44.495 136.059 44.3503 135.965 44.243C135.877 44.1357 135.751 44.0493 135.587 43.984C135.424 43.914 135.233 43.8533 135.013 43.802L134.649 43.711C134.365 43.6363 134.113 43.5453 133.893 43.438C133.674 43.3307 133.501 43.1907 133.375 43.018C133.254 42.8407 133.193 42.6143 133.193 42.339C133.193 42.0637 133.261 41.8257 133.396 41.625C133.536 41.4243 133.73 41.2703 133.977 41.163C134.229 41.0557 134.519 41.002 134.845 41.002C135.177 41.002 135.473 41.0603 135.734 41.177C136 41.289 136.208 41.457 136.357 41.681C136.511 41.9003 136.588 42.178 136.588 42.514V42.808H136.007V42.514C136.007 42.276 135.956 42.0847 135.853 41.94C135.755 41.7953 135.618 41.688 135.44 41.618C135.268 41.548 135.069 41.513 134.845 41.513C134.523 41.513 134.264 41.5853 134.068 41.73C133.872 41.87 133.774 42.0707 133.774 42.332C133.774 42.5047 133.816 42.6447 133.9 42.752C133.984 42.8593 134.103 42.948 134.257 43.018C134.411 43.0833 134.596 43.1417 134.81 43.193L135.174 43.284C135.459 43.3447 135.713 43.4287 135.937 43.536C136.166 43.6387 136.348 43.781 136.483 43.963C136.619 44.1403 136.686 44.3737 136.686 44.663C136.686 44.9523 136.614 45.2043 136.469 45.419C136.325 45.6337 136.119 45.8017 135.853 45.923C135.592 46.0397 135.284 46.098 134.929 46.098ZM137.612 46V42.577H138.151V43.004H138.249C138.315 42.8827 138.422 42.7707 138.571 42.668C138.721 42.5653 138.931 42.514 139.201 42.514C139.467 42.514 139.682 42.5723 139.845 42.689C140.013 42.8057 140.135 42.948 140.209 43.116H140.307C140.387 42.948 140.506 42.8057 140.664 42.689C140.828 42.5723 141.054 42.514 141.343 42.514C141.572 42.514 141.773 42.5607 141.945 42.654C142.118 42.7473 142.253 42.8827 142.351 43.06C142.454 43.2327 142.505 43.4403 142.505 43.683V46H141.952V43.732C141.952 43.5033 141.885 43.3237 141.749 43.193C141.619 43.0577 141.434 42.99 141.196 42.99C140.944 42.99 140.737 43.0717 140.573 43.235C140.415 43.3983 140.335 43.634 140.335 43.942V46H139.782V43.732C139.782 43.5033 139.715 43.3237 139.579 43.193C139.449 43.0577 139.264 42.99 139.026 42.99C138.774 42.99 138.567 43.0717 138.403 43.235C138.245 43.3983 138.165 43.634 138.165 43.942V46H137.612ZM144.685 46.098C144.447 46.098 144.23 46.056 144.034 45.972C143.838 45.888 143.684 45.7667 143.572 45.608C143.46 45.4493 143.404 45.2557 143.404 45.027C143.404 44.7937 143.46 44.6023 143.572 44.453C143.684 44.299 143.838 44.1847 144.034 44.11C144.23 44.0307 144.449 43.991 144.692 43.991H145.847V43.739C145.847 43.4963 145.774 43.305 145.63 43.165C145.49 43.025 145.28 42.955 145 42.955C144.724 42.955 144.51 43.0227 144.356 43.158C144.202 43.2887 144.097 43.466 144.041 43.69L143.523 43.522C143.579 43.3307 143.667 43.158 143.789 43.004C143.91 42.8453 144.071 42.7193 144.272 42.626C144.477 42.528 144.722 42.479 145.007 42.479C145.445 42.479 145.786 42.5933 146.029 42.822C146.271 43.046 146.393 43.3633 146.393 43.774V45.321C146.393 45.461 146.458 45.531 146.589 45.531H146.904V46H146.421C146.267 46 146.143 45.958 146.05 45.874C145.956 45.7853 145.91 45.6687 145.91 45.524V45.489H145.826C145.774 45.5777 145.704 45.671 145.616 45.769C145.532 45.8623 145.415 45.9393 145.266 46C145.116 46.0653 144.923 46.098 144.685 46.098ZM144.748 45.622C145.074 45.622 145.338 45.5263 145.539 45.335C145.744 45.139 145.847 44.866 145.847 44.516V44.439H144.713C144.493 44.439 144.311 44.488 144.167 44.586C144.027 44.6793 143.957 44.8217 143.957 45.013C143.957 45.2043 144.029 45.3537 144.174 45.461C144.323 45.5683 144.514 45.622 144.748 45.622ZM147.661 46V42.577H148.2V42.997H148.298C148.359 42.8477 148.452 42.738 148.578 42.668C148.704 42.598 148.87 42.563 149.075 42.563H149.481V43.067H149.04C148.793 43.067 148.592 43.137 148.438 43.277C148.289 43.4123 148.214 43.6247 148.214 43.914V46H147.661ZM151.56 46C151.364 46 151.212 45.9463 151.105 45.839C151.002 45.7317 150.951 45.5847 150.951 45.398V43.06H149.922V42.577H150.951V41.359H151.504V42.577H152.624V43.06H151.504V45.314C151.504 45.454 151.571 45.524 151.707 45.524H152.47V46H151.56ZM154.964 46.098C154.619 46.098 154.316 46.0257 154.054 45.881C153.793 45.7317 153.59 45.524 153.445 45.258C153.301 44.992 153.228 44.684 153.228 44.334V44.25C153.228 43.8953 153.301 43.585 153.445 43.319C153.59 43.053 153.791 42.8477 154.047 42.703C154.304 42.5537 154.598 42.479 154.929 42.479C155.251 42.479 155.536 42.549 155.783 42.689C156.031 42.8243 156.224 43.0203 156.364 43.277C156.504 43.5337 156.574 43.8347 156.574 44.18V44.432H153.781C153.795 44.8007 153.914 45.09 154.138 45.3C154.362 45.5053 154.642 45.608 154.978 45.608C155.272 45.608 155.499 45.5403 155.657 45.405C155.816 45.2697 155.937 45.1087 156.021 44.922L156.497 45.153C156.427 45.2977 156.329 45.4423 156.203 45.587C156.082 45.7317 155.921 45.853 155.72 45.951C155.524 46.049 155.272 46.098 154.964 46.098ZM153.788 43.977H156.014C155.996 43.6597 155.886 43.4123 155.685 43.235C155.489 43.0577 155.237 42.969 154.929 42.969C154.617 42.969 154.36 43.0577 154.159 43.235C153.959 43.4123 153.835 43.6597 153.788 43.977ZM157.539 46V42.577H158.078V42.997H158.176C158.237 42.8477 158.33 42.738 158.456 42.668C158.582 42.598 158.748 42.563 158.953 42.563H159.359V43.067H158.918C158.671 43.067 158.47 43.137 158.316 43.277C158.167 43.4123 158.092 43.6247 158.092 43.914V46H157.539Z" fill="black"/>
<defs>
<clipPath id="clip0_1040_6451">
<rect width="46.3636" height="50" rx="9.09091" fill="white"/>
</clipPath>
</defs>
</svg>
