<svg width="28" height="25" viewBox="0 0 28 25" fill="none" xmlns="http://www.w3.org/2000/svg">
<path d="M3.19582 11.7703C2.63171 11.21 2.18477 10.5429 1.88104 9.80811C1.57731 9.07327 1.42286 8.28534 1.4267 7.49022C1.4267 5.88209 2.06554 4.33981 3.20266 3.20269C4.33979 2.06556 5.88206 1.42673 7.4902 1.42673C9.74439 1.42673 11.7132 2.6537 12.7547 4.47988H14.3526C14.8821 3.55118 15.6482 2.77937 16.573 2.24306C17.4978 1.70674 18.5482 1.42507 19.6172 1.42673C21.2253 1.42673 22.7676 2.06556 23.9047 3.20269C25.0419 4.33981 25.6807 5.88209 25.6807 7.49022C25.6807 9.15947 24.9673 10.7003 23.9116 11.7703L13.5537 22.1139L3.19582 11.7703ZM24.9103 12.7833C26.2656 11.4137 27.1074 9.55895 27.1074 7.49022C27.1074 5.5037 26.3182 3.59854 24.9136 2.19385C23.5089 0.789169 21.6037 2.57549e-05 19.6172 2.57549e-05C17.1205 2.57549e-05 14.9091 1.21272 13.5537 3.09597C12.8619 2.13509 11.9509 1.35299 10.8964 0.814571C9.84191 0.276148 8.67422 -0.00308782 7.4902 2.57549e-05C5.50367 2.57549e-05 3.59851 0.789169 2.19383 2.19385C0.789144 3.59854 0 5.5037 0 7.49022C0 9.55895 0.841756 11.4137 2.19713 12.7833L13.5537 24.1399L24.9103 12.7833Z" fill="#A1A1A1"/>
</svg>
