<svg width="40" height="40" viewBox="0 0 40 40" fill="none" xmlns="http://www.w3.org/2000/svg">
<path d="M19.9844 2.58789C21.0059 2.58789 22.0054 2.73712 22.7588 3.01855L31.0762 6.13574H31.0771C33.2967 6.96251 35.0518 9.5081 35.0518 11.8672V24.25C35.0518 25.3372 34.7075 26.5899 34.125 27.749C33.579 28.8353 32.8416 29.8029 32.0322 30.4561L31.8691 30.583L24.7021 35.9326L24.6963 35.9375C23.4136 36.9266 21.725 37.4336 20.001 37.4336C18.2783 37.4335 16.5859 36.9268 15.2656 35.9482H15.2646L8.10059 30.5996C7.22788 29.9489 6.42654 28.9213 5.84375 27.7598C5.26091 26.5981 4.91797 25.3452 4.91797 24.2666V11.8672C4.91797 9.50798 6.67291 6.96238 8.89258 6.13574H8.89355L17.21 3.01855C17.9634 2.73704 18.9627 2.58792 19.9844 2.58789ZM20.002 4.08594C19.2034 4.08812 18.3764 4.19536 17.7432 4.43164L17.7422 4.43262L9.42578 7.54883H9.4248C8.5973 7.86042 7.85607 8.52294 7.3252 9.29102C6.79412 10.0594 6.43457 10.9903 6.43457 11.8838V24.2666C6.43457 25.1611 6.74515 26.1898 7.20215 27.1016C7.65903 28.0131 8.29439 28.8731 9.00195 29.4014L16.1689 34.751C17.2308 35.5449 18.6294 35.9257 20.0029 35.9258C21.3768 35.9258 22.7792 35.5447 23.8486 34.752L23.8506 34.751L31.0166 29.4014L31.0176 29.4004C31.7323 28.8643 32.3679 28.0054 32.8232 27.0947C33.2786 26.1841 33.585 25.16 33.585 24.2666V11.8672C33.585 10.9811 33.2246 10.0543 32.6943 9.28711C32.1638 8.51956 31.4233 7.85435 30.5986 7.53418L30.5938 7.53223L22.2764 4.41504L22.2676 4.41211C21.6294 4.18691 20.8014 4.08376 20.002 4.08594Z" fill="#FAFAFA" stroke="#FAFAFA"/>
<path d="M24.4023 14.7705C24.6904 14.4827 25.1739 14.4825 25.4619 14.7705C25.7498 15.0585 25.7497 15.542 25.4619 15.8301L18.2949 22.9971C18.1436 23.1483 17.9559 23.2168 17.7646 23.2168C17.5736 23.2167 17.3865 23.1482 17.2354 22.9971L14.5518 20.3135C14.2639 20.0254 14.2638 19.5419 14.5518 19.2539C14.8398 18.9659 15.3232 18.966 15.6113 19.2539L17.7646 21.4072L18.1191 21.0537L24.4023 14.7705Z" fill="#FAFAFA" stroke="#FAFAFA"/>
</svg>
