<svg width="40" height="40" viewBox="0 0 40 40" fill="none" xmlns="http://www.w3.org/2000/svg">
<g clip-path="url(#clip0_1804_1487)">
<path d="M11.6654 31.6667C13.5063 31.6667 14.9987 30.1743 14.9987 28.3333C14.9987 26.4924 13.5063 25 11.6654 25C9.82442 25 8.33203 26.4924 8.33203 28.3333C8.33203 30.1743 9.82442 31.6667 11.6654 31.6667Z" stroke="#FAFAFA" stroke-width="2" stroke-linecap="round" stroke-linejoin="round"/>
<path d="M28.3333 31.6667C30.1743 31.6667 31.6667 30.1743 31.6667 28.3333C31.6667 26.4924 30.1743 25 28.3333 25C26.4924 25 25 26.4924 25 28.3333C25 30.1743 26.4924 31.6667 28.3333 31.6667Z" stroke="#FAFAFA" stroke-width="2" stroke-linecap="round" stroke-linejoin="round"/>
<path d="M8.33203 28.334H6.9987C5.89413 28.334 4.9987 27.4386 4.9987 26.334V21.6673M3.33203 8.33398H19.6654C20.7699 8.33398 21.6654 9.22941 21.6654 10.334V28.334M14.9987 28.334H24.9987M31.6654 28.334H32.9987C34.1033 28.334 34.9987 27.4386 34.9987 26.334V18.334M34.9987 18.334H21.6654M34.9987 18.334L30.5813 10.9717C30.2199 10.3692 29.5688 10.0007 28.8663 10.0007H21.6654" stroke="#FAFAFA" stroke-width="2" stroke-linecap="round" stroke-linejoin="round"/>
<path d="M8 28H6.66667C5.5621 28 4.66667 27.1046 4.66667 26V21.3333M3 8H19.3333C20.4379 8 21.3333 8.89543 21.3333 10V28M15 28H24.6667M32 28H32.6667C33.7712 28 34.6667 27.1046 34.6667 26V18M34.6667 18H21.3333M34.6667 18L30.2493 10.6377C29.8878 10.0353 29.2368 9.66667 28.5343 9.66667H21.3333" stroke="#FAFAFA" stroke-width="2" stroke-linecap="round" stroke-linejoin="round"/>
<path d="M5 11.8184H11.6667" stroke="#FAFAFA" stroke-width="2" stroke-linecap="round" stroke-linejoin="round"/>
<path d="M1.81641 15.4551H8.48307" stroke="#FAFAFA" stroke-width="2" stroke-linecap="round" stroke-linejoin="round"/>
<path d="M5 19.0918H11.6667" stroke="#FAFAFA" stroke-width="2" stroke-linecap="round" stroke-linejoin="round"/>
</g>
<defs>
<clipPath id="clip0_1804_1487">
<rect width="40" height="40" fill="white"/>
</clipPath>
</defs>
</svg>
